<svg height="512pt" viewBox="-67 0 512 512" width="512pt" xmlns="http://www.w3.org/2000/svg"><path d="m189.0625 0h-.003906c-104.246094 0-189.058594 84.8125-189.058594 189.058594 0 35.945312 9.605469 75.25 28.546875 116.820312 14.875 32.648438 35.550781 66.851563 61.449219 101.648438 43.851562 58.929687 87.097656 98.851562 88.914062 100.523437 2.769532 2.539063 6.394532 3.949219 10.148438 3.949219 3.757812 0 7.378906-1.410156 10.148437-3.949219 1.816407-1.671875 45.0625-41.59375 88.914063-100.523437 25.898437-34.796875 46.574218-69 61.449218-101.648438 18.941407-41.570312 28.546876-80.875 28.546876-116.820312 0-104.246094-84.808594-189.058594-189.054688-189.058594zm75.308594 389.195312c-29.863282 40.191407-60.0625 71.777344-75.304688 86.933594-36.515625-36.375-159.066406-167.398437-159.066406-287.070312 0-87.707032 71.351562-159.058594 159.058594-159.058594h.003906c87.703125 0 159.054688 71.351562 159.054688 159.058594 0 72.257812-45.542969 148.71875-83.746094 200.136718zm0 0"/><path d="m189.058594 75.988281c-62.347656 0-113.070313 50.722657-113.070313 113.070313 0 62.34375 50.722657 113.066406 113.070313 113.066406 62.34375 0 113.066406-50.722656 113.066406-113.066406 0-62.347656-50.722656-113.070313-113.066406-113.070313zm81.683594 98.070313h-30.058594c-1.164063-21.230469-4.785156-41.03125-10.5-57.125 20.871094 11.945312 36.078125 32.675781 40.558594 57.125zm-81.683594 98.042968c-1.511719-.511718-7.394532-5.226562-13.0625-21.492187-4.515625-12.957031-7.441406-29.117187-8.511719-46.550781h43.144531c-1.070312 17.433594-3.996094 33.59375-8.511718 46.550781-5.667969 16.265625-11.550782 20.980469-13.058594 21.492187zm-21.574219-98.042968c1.070313-17.4375 3.996094-33.59375 8.511719-46.550782 5.667968-16.269531 11.550781-20.984374 13.0625-21.496093 1.507812.511719 7.390625 5.226562 13.058594 21.496093 4.515624 12.957032 7.441406 29.113282 8.511718 46.550782zm-19.554687-57.125c-5.710938 16.09375-9.335938 35.894531-10.5 57.125h-30.058594c4.480468-24.449219 19.6875-45.179688 40.558594-57.125zm-40.558594 87.125h30.0625c1.160156 21.226562 4.785156 41.027344 10.496094 57.125-20.871094-11.949219-36.078126-32.679688-40.558594-57.125zm122.8125 57.125c5.710937-16.097656 9.335937-35.898438 10.5-57.125h30.058594c-4.480469 24.445312-19.6875 45.175781-40.558594 57.125zm0 0"/></svg>